<svg width="1512" height="665" viewBox="0 0 1512 665" fill="none" xmlns="http://www.w3.org/2000/svg">
<g clip-path="url(#clip0_3725_16500)">
<rect width="1512" height="665" fill="#5A74FD"/>
<path d="M1139.98 235C902.379 330.2 1126.98 387 1268.98 403.5C1357.15 412.5 1475.08 496.9 1241.48 762.5" stroke="black" stroke-opacity="0.05" stroke-width="43"/>
<g filter="url(#filter0_f_3725_16500)">
<circle cx="1370.5" cy="617.5" r="133.5" fill="#FFD863"/>
</g>
<path d="M93.3924 412.194C67.4984 418.897 37.9847 435.096 20.4436 452.133C5.12985 467.215 4.29457 468.891 4.29457 481.459C4.29457 492.352 5.68671 496.262 12.369 502.965C19.0514 509.389 22.9494 511.065 32.9729 511.065C43.2749 511.065 47.4514 509.11 61.6513 497.658C93.3924 472.242 128.475 463.584 161.33 473.08C208.941 487.045 238.733 526.426 238.733 575.303C239.012 624.739 206.992 665.795 159.102 677.805C141.004 682.274 138.22 682.274 118.173 678.084C89.2159 671.94 80.863 668.03 -60.5798 592.899C-136.87 552.401 -185.874 527.823 -190.885 527.823C-208.983 527.823 -221.234 540.391 -221.234 559.104C-221.234 564.41 -219.285 571.114 -217.058 574.465C-212.603 580.889 -161.372 609.657 -59.7445 663.282C27.9612 709.645 77.5219 733.385 97.2905 738.413C179.984 759.081 268.525 707.969 294.698 624.18C303.329 596.25 303.051 553.518 294.141 526.426C284.674 497.379 272.98 478.387 250.427 456.043C228.431 433.979 196.69 416.383 169.126 410.797C148.8 406.608 111.769 407.166 93.3924 412.194Z" fill="#E3F0FF" fill-opacity="0.05"/>
<path d="M-197.392 738.806C-171.498 732.103 -141.985 715.904 -124.444 698.867C-109.13 683.785 -108.295 682.109 -108.295 669.541C-108.295 658.648 -109.687 654.738 -116.369 648.035C-123.051 641.611 -126.949 639.935 -136.973 639.935C-147.275 639.935 -151.451 641.89 -165.651 653.342C-197.392 678.758 -232.475 687.416 -265.33 677.92C-312.941 663.955 -342.733 624.574 -342.733 575.697C-343.012 526.261 -310.992 485.205 -263.102 473.195C-245.004 468.726 -242.22 468.726 -222.173 472.916C-193.216 479.06 -184.863 482.97 -43.4202 558.101C32.8698 598.599 81.8736 623.177 86.8854 623.177C104.983 623.177 117.234 610.609 117.234 591.896C117.234 586.59 115.285 579.886 113.058 576.535C108.603 570.111 57.3717 541.343 -44.2555 487.718C-131.961 441.355 -181.522 417.615 -201.29 412.587C-283.984 391.919 -372.525 443.031 -398.698 526.82C-407.329 554.75 -407.051 597.482 -398.141 624.574C-388.674 653.621 -376.98 672.613 -354.427 694.957C-332.431 717.021 -300.69 734.617 -273.126 740.203C-252.8 744.392 -215.769 743.834 -197.392 738.806Z" fill="#FFFAE8" fill-opacity="0.05"/>
</g>
<defs>
<filter id="filter0_f_3725_16500" x="937" y="184" width="867" height="867" filterUnits="userSpaceOnUse" color-interpolation-filters="sRGB">
<feFlood flood-opacity="0" result="BackgroundImageFix"/>
<feBlend mode="normal" in="SourceGraphic" in2="BackgroundImageFix" result="shape"/>
<feGaussianBlur stdDeviation="150" result="effect1_foregroundBlur_3725_16500"/>
</filter>
<clipPath id="clip0_3725_16500">
<rect width="1512" height="665" fill="white"/>
</clipPath>
</defs>
</svg>
