<svg width="406" height="306" viewBox="0 0 406 306" fill="none" xmlns="http://www.w3.org/2000/svg">
<path opacity="0.24" d="M366.324 298.534C365.717 298.837 365.11 299.141 364.503 299.418C352.799 304.753 339.656 305.916 326.783 305.987C270.456 306.394 214.458 288.064 158.485 294.736C123.827 298.863 85.7267 311.807 56.2228 293.173C42.3944 284.421 33.2164 270.037 25.5304 255.576C15.6097 236.923 7.14214 216.268 9.26709 195.231C9.53165 192.623 9.96312 190.034 10.5589 187.481C15.4676 165.592 31.0398 146.88 47.4194 131.082C65.6979 113.411 86.1724 97.1021 98.3602 74.8321C108.048 57.2317 112.344 36.2728 126.301 21.8373C165.558 -18.8533 255.71 5.28337 296.924 30.4599C323.592 46.7684 345.184 72.9073 351.482 103.522C355.357 122.459 353.419 142.404 358.961 160.941C367.687 190.29 394.252 213.322 396.907 243.808C398.825 265.891 386.082 288.522 366.324 298.534Z" fill="#233DFF"/>
<path opacity="0.24" d="M366.324 298.534C365.717 298.837 365.11 299.141 364.503 299.418C352.799 304.753 339.656 305.916 326.783 305.987C270.456 306.394 214.458 288.064 158.485 294.736C123.827 298.863 85.7267 311.806 56.2228 293.173C42.3944 284.421 33.2164 270.037 25.5304 255.576C15.6097 236.923 7.14214 216.267 9.26709 195.231C9.53165 192.623 9.96312 190.034 10.5589 187.48C11.3645 187.161 12.1883 186.889 13.0261 186.667C31.5565 181.564 54.5629 187.377 66.8476 202.316C74.7855 212.005 78.5316 224.335 83.6857 235.767C88.8399 247.199 96.5065 258.644 108.333 262.739C127.709 269.437 148.888 253.89 168.807 258.541C180.135 261.221 189.01 269.998 199.906 274.093C231.632 286.049 268.77 255.686 299.611 269.818C303.15 271.439 306.464 273.635 310.184 274.72C314.86 276.115 319.814 275.708 324.691 275.611C332.468 275.434 340.245 276.033 347.904 277.4C351.895 278.137 356.042 279.17 358.922 282.005C360.996 284.027 362.184 286.785 363.224 289.485C364.387 292.436 365.426 295.472 366.324 298.534Z" fill="#233DFF"/>
<path d="M322.637 193.771C322.159 179.652 325.221 165.682 328.418 151.925C341.936 163.957 355.726 176.332 364.387 192.189C367.617 198.099 370.084 204.461 373.946 209.951C378.694 216.72 385.359 221.977 389.919 228.869C398.632 242.032 398.051 260.672 388.53 273.267C387.668 274.585 386.471 275.65 385.062 276.354C383.254 277.11 381.187 276.748 379.288 276.276C362.592 272.13 348.408 259.619 341.588 243.911C334.212 226.931 323.296 213.309 322.637 193.771Z" fill="#233DFF"/>
<path d="M322.637 193.771C322.159 179.652 325.221 165.682 328.418 151.925C341.936 163.957 355.726 176.332 364.387 192.189C367.617 198.099 370.084 204.461 373.946 209.951C378.694 216.72 385.359 221.977 389.919 228.869C398.632 242.032 398.051 260.672 388.53 273.267C387.668 274.585 386.471 275.65 385.062 276.354C383.254 277.11 381.187 276.748 379.288 276.276C362.592 272.13 348.408 259.619 341.588 243.911C334.212 226.931 323.296 213.309 322.637 193.771Z" fill="url(#paint0_linear_3400_13944)"/>
<path d="M132.657 247.089C135.796 257.675 141.906 267.551 142.533 278.569C142.817 283.601 140.143 292.934 139.258 297.888C149.043 299.444 160.843 295.188 170.648 293.78C172.127 293.567 173.677 293.289 174.84 292.352C176.002 291.416 176.584 290.027 177.126 288.664C184.973 268.85 188.305 247.536 186.879 226.272C186.653 222.998 186.304 219.678 185.103 216.623C184.873 215.863 184.423 215.189 183.811 214.685C183.02 214.26 182.121 214.08 181.227 214.168L156.794 214.304C149.366 214.343 137.643 214.149 132.095 220.201C127.012 225.684 130.739 240.624 132.657 247.089Z" fill="#606161"/>
<path d="M132.657 247.089C135.796 257.675 141.906 267.551 142.533 278.569C142.817 283.601 140.143 292.934 139.258 297.888C149.043 299.444 160.843 295.188 170.648 293.78C172.127 293.567 173.677 293.289 174.84 292.352C176.002 291.416 176.584 290.027 177.126 288.664C184.973 268.85 188.305 247.536 186.879 226.272C186.653 222.998 186.304 219.678 185.103 216.623C184.873 215.863 184.423 215.189 183.811 214.685C183.02 214.26 182.121 214.08 181.227 214.168L156.794 214.304C149.366 214.343 137.643 214.149 132.095 220.201C127.012 225.684 130.739 240.624 132.657 247.089Z" fill="url(#paint1_linear_3400_13944)"/>
<path d="M205.958 242.096C205.146 257.834 205.362 273.608 206.604 289.317C206.745 290.109 206.655 290.925 206.345 291.668C205.661 292.96 203.943 293.153 202.47 293.199C193.772 293.44 185.072 293.339 176.37 292.895C175.495 292.991 174.616 292.76 173.901 292.248C173.186 291.735 172.685 290.977 172.495 290.118C170.266 285.099 168.367 279.861 165.138 275.418C161.172 269.947 155.45 266.026 151.051 260.892C144.683 253.432 141.441 243.756 139.871 234.081C139.458 231.543 139.225 228.662 140.853 226.666C142.293 224.89 144.728 224.38 146.95 223.799C154.701 221.758 161.663 217.559 168.51 213.406C174 210.074 179.548 206.728 184.443 202.543C188.435 199.132 192.427 192.925 198.53 195.231C202.309 196.659 202.438 199.862 202.405 203.46C202.405 208.627 202.147 213.096 203.62 218.115C206.074 226.272 206.391 233.629 205.958 242.096Z" fill="#606161"/>
<path d="M205.958 242.096C205.146 257.834 205.362 273.608 206.604 289.317C206.745 290.109 206.655 290.925 206.345 291.668C205.661 292.96 203.943 293.153 202.47 293.199C193.772 293.44 185.072 293.339 176.37 292.895C175.495 292.991 174.616 292.76 173.901 292.248C173.186 291.735 172.685 290.977 172.495 290.118C170.266 285.099 168.367 279.861 165.138 275.418C161.172 269.947 155.45 266.026 151.051 260.892C144.683 253.432 141.441 243.756 139.871 234.081C139.458 231.543 139.225 228.662 140.853 226.666C142.293 224.89 144.728 224.38 146.95 223.799C154.701 221.758 161.663 217.559 168.51 213.406C174 210.074 179.548 206.728 184.443 202.543C188.435 199.132 192.427 192.925 198.53 195.231C202.309 196.659 202.438 199.862 202.405 203.46C202.405 208.627 202.147 213.096 203.62 218.115C206.074 226.272 206.391 233.629 205.958 242.096Z" fill="url(#paint2_linear_3400_13944)"/>
<path d="M192.388 58.4073C193.929 58.4044 195.431 58.8857 196.684 59.783C197.351 60.3396 197.901 61.0222 198.305 61.7917C200.552 65.8802 199.719 71.0989 201.851 75.2519C202.419 76.3499 203.207 77.4738 203.013 78.6945C202.845 79.786 201.941 80.5934 201.457 81.5816C200.565 83.403 201.179 85.599 200.688 87.5625C200.379 88.6403 199.859 89.6458 199.157 90.5206C198.206 91.9049 196.96 93.0608 195.508 93.905C194.78 94.3221 193.974 94.587 193.14 94.6836C192.307 94.7802 191.462 94.7065 190.657 94.467C188.901 93.8727 187.635 92.3678 186.498 90.9017C185.339 89.521 184.38 87.9837 183.65 86.3353C182.526 83.5192 182.655 80.3802 182.81 77.3511C183.12 71.1054 183.482 57.9875 192.388 58.4073Z" fill="url(#paint3_linear_3400_13944)"/>
<path d="M203.452 57.1736C203.301 57.3339 203.127 57.471 202.936 57.5805C202.673 57.6833 202.391 57.7274 202.109 57.7097C200.564 57.7181 199.023 57.8434 197.497 58.0843C197.237 58.1011 196.986 58.1906 196.774 58.3427C196.568 58.5785 196.445 58.876 196.425 59.1888C195.97 61.9956 195.84 64.8455 196.038 67.6821C196.102 68.5864 196.257 69.6198 197 70.1365C197.6 70.4675 198.289 70.603 198.97 70.524L201.34 70.4788C201.539 70.4585 201.738 70.4967 201.915 70.5886C202.161 70.7436 202.212 71.073 202.283 71.3572C202.69 73.114 204.311 74.3735 206.023 74.9419C207.735 75.5103 209.575 75.5296 211.371 75.6976C217.042 76.2401 222.474 78.3263 228.164 78.8624C228.61 78.9615 229.074 78.9491 229.515 78.8263C229.955 78.7035 230.358 78.4741 230.689 78.1584L234.158 75.4263C234.468 75.1438 234.83 74.9245 235.223 74.7804C235.553 74.6999 235.893 74.6737 236.231 74.7029C239.874 74.8514 243.898 75.465 246.836 73.3142C248.321 72.114 249.43 70.5137 250.033 68.7026C250.813 66.809 251.168 64.7674 251.073 62.7218C250.857 59.9202 249.546 57.3166 247.424 55.475C247.11 55.1831 246.747 54.9491 246.352 54.7839C245.886 54.6408 245.399 54.5775 244.912 54.5966L232.885 54.364C227.034 54.2542 221.182 54.1444 215.33 54.2349C213.201 54.2108 211.08 54.4959 209.033 55.081C207.024 55.6881 205.08 55.6364 203.452 57.1736Z" fill="#606161"/>
<path d="M203.452 57.1736C203.301 57.3339 203.127 57.471 202.936 57.5805C202.673 57.6833 202.391 57.7274 202.109 57.7097C200.564 57.7181 199.023 57.8434 197.497 58.0843C197.237 58.1011 196.986 58.1906 196.774 58.3427C196.568 58.5785 196.445 58.876 196.425 59.1888C195.97 61.9956 195.84 64.8455 196.038 67.6821C196.102 68.5864 196.257 69.6198 197 70.1365C197.6 70.4675 198.289 70.603 198.97 70.524L201.34 70.4788C201.539 70.4585 201.738 70.4967 201.915 70.5886C202.161 70.7436 202.212 71.073 202.283 71.3572C202.69 73.114 204.311 74.3735 206.023 74.9419C207.735 75.5103 209.575 75.5296 211.371 75.6976C217.042 76.2401 222.474 78.3263 228.164 78.8624C228.61 78.9615 229.074 78.9491 229.515 78.8263C229.955 78.7035 230.358 78.4741 230.689 78.1584L234.158 75.4263C234.468 75.1438 234.83 74.9245 235.223 74.7804C235.553 74.6999 235.893 74.6737 236.231 74.7029C239.874 74.8514 243.898 75.465 246.836 73.3142C248.321 72.114 249.43 70.5137 250.033 68.7026C250.813 66.809 251.168 64.7674 251.073 62.7218C250.857 59.9202 249.546 57.3166 247.424 55.475C247.11 55.1831 246.747 54.9491 246.352 54.7839C245.886 54.6408 245.399 54.5775 244.912 54.5966L232.885 54.364C227.034 54.2542 221.182 54.1444 215.33 54.2349C213.201 54.2108 211.08 54.4959 209.033 55.081C207.024 55.6881 205.08 55.6364 203.452 57.1736Z" fill="url(#paint4_linear_3400_13944)"/>
<path d="M195.165 50.5467C198.059 56.8182 197.193 64.1103 196.754 70.976C196.061 81.7899 196.575 92.6473 198.285 103.348C194.765 100.325 190.321 98.5423 185.787 97.5347C181.253 96.5271 176.602 96.3075 171.965 96.075C170.977 95.972 169.979 96.0221 169.007 96.2236C166.462 96.8695 164.905 99.453 164.053 101.953C163.2 104.452 162.761 107.12 161.217 109.283L162.509 97.5476C162.708 96.5808 162.618 95.5767 162.251 94.6605C161.833 93.9685 161.21 93.4242 160.468 93.104C159.211 92.5012 157.819 92.2355 156.429 92.3328C155.038 92.4302 153.697 92.8873 152.537 93.6594C151.639 89.3901 154.868 85.4502 155.908 81.2132C156.651 78.197 156.263 75.0257 156.057 71.9255C155.708 67.1678 155.849 62.3869 156.477 57.6579C156.864 54.8225 157.465 51.9677 158.879 49.4875C161.185 45.4442 165.409 42.8349 169.782 41.2395C174.535 39.5086 180.355 38.966 184.224 42.2213C185.173 43.0222 186.084 44.23 187.35 44.5142C188.454 44.7596 189.287 44.5142 190.385 45.1148C192.543 46.2645 194.125 48.3701 195.165 50.5467Z" fill="#606161"/>
<path d="M195.165 50.5467C198.059 56.8182 197.193 64.1103 196.754 70.976C196.061 81.7899 196.575 92.6473 198.285 103.348C194.765 100.325 190.321 98.5423 185.787 97.5347C181.253 96.5271 176.602 96.3075 171.965 96.075C170.977 95.972 169.979 96.0221 169.007 96.2236C166.462 96.8695 164.905 99.453 164.053 101.953C163.2 104.452 162.761 107.12 161.217 109.283L162.509 97.5476C162.708 96.5808 162.618 95.5767 162.251 94.6605C161.833 93.9685 161.21 93.4242 160.468 93.104C159.211 92.5012 157.819 92.2355 156.429 92.3328C155.038 92.4302 153.697 92.8873 152.537 93.6594C151.639 89.3901 154.868 85.4502 155.908 81.2132C156.651 78.197 156.263 75.0257 156.057 71.9255C155.708 67.1678 155.849 62.3869 156.477 57.6579C156.864 54.8225 157.465 51.9677 158.879 49.4875C161.185 45.4442 165.409 42.8349 169.782 41.2395C174.535 39.5086 180.355 38.966 184.224 42.2213C185.173 43.0222 186.084 44.23 187.35 44.5142C188.454 44.7596 189.287 44.5142 190.385 45.1148C192.543 46.2645 194.125 48.3701 195.165 50.5467Z" fill="url(#paint5_linear_3400_13944)"/>
<path d="M173.767 35.22L167.644 30.4211C167.307 30.0651 166.869 29.8197 166.39 29.7171C165.91 29.6145 165.411 29.6595 164.957 29.8462C158.808 31.4028 152.834 34.0961 148.235 38.4623C141.776 44.6047 138.605 53.4403 136.506 62.1145C136.17 63.5161 135.86 65.0275 136.383 66.3645C136.845 67.3143 137.506 68.1536 138.321 68.8253L143.327 73.6306C143.706 73.9329 143.989 74.3392 144.14 74.7997C144.195 75.3317 144.063 75.8662 143.766 76.3111C142.823 78.0743 141.525 79.6244 140.536 81.3489C139.548 83.0735 138.792 85.0951 139.148 87.065C139.389 88.2617 140.007 89.3497 140.911 90.1701C141.816 90.9905 142.958 91.5003 144.173 91.6249C145.904 91.767 147.589 91.0953 149.178 90.3848C160.78 85.1483 170.866 77.0577 178.495 66.8682C182.59 61.3782 185.916 55.3457 189.049 49.2486C190.864 45.7091 192.633 42.1051 193.654 38.2685C194.402 35.8202 194.543 33.227 194.067 30.7117C193.994 30.2589 193.795 29.8358 193.492 29.491C193.058 29.1464 192.522 28.9536 191.968 28.942C189.489 28.673 186.98 28.9499 184.619 29.7532C182.258 30.5566 180.102 31.867 178.301 33.5924C177.588 34.4079 176.633 34.9738 175.576 35.2071C175.052 35.3169 174.187 35.53 173.767 35.22Z" fill="#233DFF"/>
<path d="M172.702 34.1544L166.579 29.3555C166.226 29.0353 165.807 28.7971 165.351 28.6579C164.86 28.5829 164.358 28.6249 163.885 28.7807C157.743 30.3308 151.762 33.0241 147.17 37.3903C140.711 43.5391 137.54 52.3748 135.441 61.049C135.105 62.4505 134.795 63.9554 135.318 65.2989C135.777 66.2483 136.439 67.0859 137.256 67.7532L142.261 72.5586C142.643 72.8585 142.926 73.2656 143.075 73.7277C143.136 74.2592 143.006 74.7951 142.707 75.239C141.764 77.0023 140.466 78.5589 139.477 80.2834C138.489 82.0079 137.734 84.023 138.089 85.993C138.33 87.1894 138.947 88.2776 139.849 89.099C140.752 89.9204 141.893 90.432 143.107 90.5594C144.845 90.7015 146.53 90.0297 148.119 89.3193C159.72 84.0845 169.805 75.9935 177.43 65.8027C181.531 60.3062 184.857 54.2801 187.99 48.183C189.805 44.6435 191.574 41.0395 192.588 37.203C193.336 34.7569 193.478 32.1657 193.002 29.6526C192.931 29.2003 192.734 28.7771 192.433 28.4319C191.996 28.0866 191.459 27.8917 190.903 27.8764C188.429 27.622 185.929 27.9084 183.577 28.7158C181.225 29.5233 179.077 30.8324 177.281 32.5526C176.553 33.3772 175.575 33.9418 174.497 34.1609C173.98 34.2384 173.115 34.4838 172.702 34.1544Z" fill="url(#paint6_linear_3400_13944)"/>
<path d="M138.476 120.832C138.141 142.346 137.676 163.944 134.317 185.194C132.909 194.127 130.991 203.246 132.702 212.121C132.923 214.395 133.792 216.558 135.208 218.351C136.623 220.144 138.525 221.493 140.685 222.235C144.234 223.747 147.941 224.856 151.736 225.542C157.097 226.627 162.658 227.325 168.013 226.188C179.128 223.85 187.279 214.058 191.833 203.653C192.789 201.47 194.507 198.764 196.793 199.442C199.59 200.269 199.125 205.145 201.844 206.205C204.55 199.584 200.798 192.228 200.436 185.084C200.029 177.088 203.917 169.583 207.295 162.323C210.673 155.064 213.702 146.912 211.519 139.207C210.57 135.842 208.677 132.826 207.547 129.519C205.926 124.804 205.9 119.682 204.537 114.883C201.902 105.57 194.261 98.1677 185.355 94.3699C176.868 90.7465 163.304 88.3115 154.204 91.2761C140.576 95.7392 138.677 108.153 138.476 120.832Z" fill="#233DFF"/>
<path d="M138.476 120.832C138.141 142.346 137.676 163.944 134.317 185.194C132.909 194.127 130.991 203.246 132.702 212.121C132.923 214.395 133.792 216.558 135.208 218.351C136.623 220.144 138.525 221.493 140.685 222.235C144.234 223.747 147.941 224.856 151.736 225.542C157.097 226.627 162.658 227.325 168.013 226.188C179.128 223.85 187.279 214.058 191.833 203.653C192.789 201.47 194.507 198.764 196.793 199.442C199.59 200.269 199.125 205.145 201.844 206.205C204.55 199.584 200.798 192.228 200.436 185.084C200.029 177.088 203.917 169.583 207.295 162.323C210.673 155.064 213.702 146.912 211.519 139.207C210.57 135.842 208.677 132.826 207.547 129.519C205.926 124.804 205.9 119.682 204.537 114.883C201.902 105.57 194.261 98.1677 185.355 94.3699C176.868 90.7465 163.304 88.3115 154.204 91.2761C140.576 95.7392 138.677 108.153 138.476 120.832Z" fill="url(#paint7_linear_3400_13944)"/>
<path d="M183.54 95.481C180.045 94.8867 176.034 94.5896 173.393 96.9536C172.25 98.0704 171.41 99.4595 170.951 100.99C168.968 106.668 169.776 113.133 172.572 118.429C175.369 123.725 180.039 127.969 185.361 130.772C192.741 134.706 201.306 135.802 209.439 133.853C215.395 132.348 220.846 129.138 226.878 127.904C234.784 126.277 243.71 128.021 250.453 123.577C251.185 123.136 251.82 122.552 252.32 121.859C252.822 121.048 253.121 120.129 253.192 119.178C253.734 114.224 250.821 109.49 247.379 105.931C246.489 104.904 245.387 104.082 244.149 103.522C243.024 103.149 241.84 102.982 240.655 103.031C233.744 102.967 226.859 103.89 219.948 103.897C214.994 103.897 209.969 103.425 205.267 101.817C203.329 101.171 201.618 100.164 199.745 99.4596C197.39 98.6331 194.993 97.9345 192.563 97.3669C189.561 96.6177 186.554 95.9891 183.54 95.481Z" fill="#233DFF"/>
<path d="M183.54 95.481C180.045 94.8867 176.034 94.5896 173.393 96.9536C172.25 98.0704 171.41 99.4595 170.951 100.99C168.968 106.668 169.776 113.133 172.572 118.429C175.369 123.725 180.039 127.969 185.361 130.772C192.741 134.706 201.306 135.802 209.439 133.853C215.395 132.348 220.846 129.138 226.878 127.904C234.784 126.277 243.71 128.021 250.453 123.577C251.185 123.136 251.82 122.552 252.32 121.859C252.822 121.048 253.121 120.129 253.192 119.178C253.734 114.224 250.821 109.49 247.379 105.931C246.489 104.904 245.387 104.082 244.149 103.522C243.024 103.149 241.84 102.982 240.655 103.031C233.744 102.967 226.859 103.89 219.948 103.897C214.994 103.897 209.969 103.425 205.267 101.817C203.329 101.171 201.618 100.164 199.745 99.4596C197.39 98.6331 194.993 97.9345 192.563 97.3669C189.561 96.6177 186.554 95.9891 183.54 95.481Z" fill="url(#paint8_linear_3400_13944)"/>
<path d="M212.779 73.7146C212.722 74.001 212.768 74.2982 212.908 74.5543C213.099 74.7789 213.365 74.9259 213.657 74.9676C215.595 75.4327 217.578 74.606 219.528 74.1732C222.467 73.5273 225.522 73.7792 228.519 74.0311C228.8 74.016 229.078 74.093 229.311 74.2503C229.544 74.4077 229.72 74.6369 229.811 74.9031C233.221 80.8323 236.715 87.0521 237.064 93.8856C237.055 95.4225 237.143 96.9585 237.329 98.4842C238.194 103.244 242.296 106.59 245.441 110.259C246.972 112.048 248.341 114.005 250.182 115.484C252.023 116.963 254.483 117.899 256.738 117.234C259.263 116.498 260.891 113.908 261.291 111.311C261.691 108.715 261.104 106.073 260.516 103.509C259.321 98.2582 258.107 92.9555 255.795 88.092C252.494 81.1488 247.14 75.4391 242.728 69.1547C239.684 64.8223 237.077 60.1989 234.945 55.3522C234.48 54.2865 233.99 53.1562 233.008 52.4974C230.876 51.0312 227.925 52.7234 225.399 52.1486C223.649 51.7482 222.338 50.3143 220.736 49.5005C219.134 48.6867 216.635 48.9127 216.215 50.6502C213.942 50.4422 211.666 51.009 209.756 52.2584C209.498 52.4263 209.22 52.6653 209.233 52.9689C209.246 53.2724 209.504 53.4533 209.737 53.6148C213.476 56.2887 217.675 60.2996 219.457 64.64C221.279 69.116 213.321 69.1612 212.779 73.7146Z" fill="url(#paint9_linear_3400_13944)"/>
<path d="M152.163 82.2661C157.549 79.0366 163.013 75.7039 167.257 71.06C171.5 66.4161 174.316 60.629 176.493 54.7191C178.069 50.4563 179.348 46.0126 179.361 41.4721C179.361 40.2255 179.438 40.9102 178.941 39.7669C177.836 37.1834 173.922 34.6645 171.378 33.5342C173.541 37.7389 172.637 42.0792 170.454 46.2774C167.392 52.1292 163.769 57.7354 158.996 62.3018C157.058 64.1749 144.141 74.2571 144.141 74.2571C144.141 74.7996 149.54 80.0959 152.163 82.2661Z" fill="#606161"/>
<path d="M152.163 82.2661C157.549 79.0366 163.013 75.7039 167.257 71.06C171.5 66.4161 174.316 60.629 176.493 54.7191C178.069 50.4563 179.348 46.0126 179.361 41.4721C179.361 40.2255 179.438 40.9102 178.941 39.7669C177.836 37.1834 173.922 34.6645 171.378 33.5342C173.541 37.7389 172.637 42.0792 170.454 46.2774C167.392 52.1292 163.769 57.7354 158.996 62.3018C157.058 64.1749 144.141 74.2571 144.141 74.2571C144.141 74.7996 149.54 80.0959 152.163 82.2661Z" fill="url(#paint10_linear_3400_13944)"/>
<path d="M161.114 40.1869C156.748 50.5727 150.173 60.6485 140.181 65.8543C139.212 66.3581 138.076 66.8167 137.068 66.3969C136.593 66.1515 136.2 65.771 135.941 65.3032C135.681 64.8355 135.565 64.3014 135.608 63.7681C135.713 62.7023 136.029 61.668 136.538 60.726L140.414 52.2456C142.629 47.4208 144.883 42.5573 148.339 38.5012C151.064 35.317 154.675 32.6882 158.789 31.6355C160.727 31.151 162.232 30.6343 162.71 32.8432C163.239 35.2007 162.006 38.0684 161.114 40.1869Z" fill="url(#paint11_linear_3400_13944)"/>
<path d="M150.599 113.798C150.168 114.301 149.908 114.927 149.856 115.587C149.856 116.478 150.573 117.183 151.193 117.828C158.421 125.43 158.363 137.121 158.944 147.597C159.532 158.68 161.288 169.667 163.039 180.628C163.549 183.812 164.111 187.132 166.029 189.728C169.64 194.63 176.673 195.321 181.627 198.867C183.003 199.849 184.288 201.18 184.579 202.852C184.87 204.525 184.069 206.321 183.287 207.903L175.013 224.399C174.006 226.658 172.703 228.774 171.138 230.69C169.471 232.434 167.556 233.923 165.454 235.108C154.558 241.806 142.002 246.475 129.227 245.888C116.451 245.3 103.534 238.783 97.4881 227.493C93.1543 219.419 92.644 209.854 93.1284 200.702C93.6128 191.549 95.0015 182.384 94.0843 173.265C93.5805 168.259 92.3792 163.286 92.5988 158.254C92.8894 151.343 95.8282 144.852 98.6959 138.555C100.498 134.621 102.326 130.643 105.058 127.291C108.1 123.564 112.227 120.644 114.404 116.356C115.121 114.941 115.696 113.294 117.11 112.558C118.035 112.167 119.043 112.012 120.042 112.106C125.074 112.177 130.764 112.041 134.174 108.34C136.758 105.505 137.268 101.378 138.644 97.7737C140.02 94.1697 143.417 90.5527 147.144 91.5539C145.915 97.1973 145.446 102.98 145.749 108.747C151.794 104.484 156.561 98.594 162.684 94.441C166.669 91.7347 172.43 89.2351 177.377 90.1006C184.275 91.3084 180.232 94.7445 176.183 96.3334C166.481 100.118 156.683 105.079 150.599 113.798Z" fill="#233DFF"/>
<path d="M150.599 113.798C150.168 114.301 149.908 114.927 149.856 115.587C149.856 116.478 150.573 117.183 151.193 117.828C158.421 125.43 158.363 137.121 158.944 147.597C159.532 158.68 161.288 169.667 163.039 180.628C163.549 183.812 164.111 187.132 166.029 189.728C169.64 194.63 176.673 195.321 181.627 198.867C183.003 199.849 184.288 201.18 184.579 202.852C184.87 204.525 184.069 206.321 183.287 207.903L175.013 224.399C174.006 226.658 172.703 228.774 171.138 230.69C169.471 232.434 167.556 233.923 165.454 235.108C154.558 241.806 142.002 246.475 129.227 245.888C116.451 245.3 103.534 238.783 97.4881 227.493C93.1543 219.419 92.644 209.854 93.1284 200.702C93.6128 191.549 95.0015 182.384 94.0843 173.265C93.5805 168.259 92.3792 163.286 92.5988 158.254C92.8894 151.343 95.8282 144.852 98.6959 138.555C100.498 134.621 102.326 130.643 105.058 127.291C108.1 123.564 112.227 120.644 114.404 116.356C115.121 114.941 115.696 113.294 117.11 112.558C118.035 112.167 119.043 112.012 120.042 112.106C125.074 112.177 130.764 112.041 134.174 108.34C136.758 105.505 137.268 101.378 138.644 97.7737C140.02 94.1697 143.417 90.5527 147.144 91.5539C145.915 97.1973 145.446 102.98 145.749 108.747C151.794 104.484 156.561 98.594 162.684 94.441C166.669 91.7347 172.43 89.2351 177.377 90.1006C184.275 91.3084 180.232 94.7445 176.183 96.3334C166.481 100.118 156.683 105.079 150.599 113.798Z" fill="url(#paint12_linear_3400_13944)"/>
<path d="M134.582 151.447C135.273 146.77 136.694 142.249 138.115 137.741L142.178 124.823C142.513 123.758 142.933 122.589 143.934 122.091C145.401 121.355 147.099 122.518 148.204 123.732C156.18 132.451 155.954 145.569 156.93 157.318C158.034 170.836 161.967 185.22 172.676 193.545C177.088 196.981 183.088 200.269 183.062 205.862C183.062 208.581 181.499 211.029 180 213.296L172.844 224.147C169.033 229.928 164.389 236.258 157.524 237.155C155.459 237.507 153.338 237.044 151.607 235.864C149.541 234.294 148.746 231.601 148.068 229.095C141.402 204.448 131.333 177.398 134.582 151.447Z" fill="url(#paint13_linear_3400_13944)"/>
<path d="M136.448 229.54C136.827 230.501 137.411 231.367 138.16 232.079C139.91 233.526 142.513 233.086 144.677 232.402C148.667 231.033 152.553 229.375 156.302 227.441C158.96 226.235 161.513 224.811 163.937 223.185C165.011 222.483 165.93 221.569 166.637 220.498C166.984 219.96 167.201 219.348 167.27 218.711C167.34 218.074 167.26 217.43 167.037 216.83C166.73 216.224 166.336 215.667 165.868 215.176C161.893 210.504 159.001 205.009 157.4 199.087C156.625 196.213 156.16 193.242 154.959 190.523C154.831 190.168 154.608 189.855 154.313 189.618C154.05 189.487 153.764 189.411 153.471 189.394C153.177 189.377 152.884 189.421 152.608 189.522C147.77 190.574 142.816 191.685 138.676 194.392C136.307 196.056 134.097 197.937 132.075 200.011C130.68 201.354 129.259 202.678 129.214 204.726C129.104 209.822 131.191 215.706 132.792 220.466C133.83 223.561 135.05 226.591 136.448 229.54Z" fill="#233DFF"/>
<path d="M137.397 228.707C137.776 229.67 138.36 230.538 139.109 231.252C140.859 232.699 143.462 232.26 145.626 231.568C149.616 230.198 153.501 228.54 157.252 226.608C159.909 225.402 162.463 223.978 164.886 222.352C165.96 221.652 166.879 220.74 167.586 219.671C167.933 219.133 168.15 218.521 168.22 217.884C168.289 217.248 168.209 216.603 167.986 216.003C167.681 215.395 167.287 214.835 166.817 214.343C162.84 209.671 159.949 204.177 158.35 198.254C157.575 195.386 157.103 192.409 155.908 189.689C155.78 189.334 155.557 189.021 155.262 188.785C154.999 188.657 154.712 188.582 154.42 188.566C154.127 188.549 153.834 188.591 153.557 188.688C148.72 189.748 143.766 190.852 139.626 193.565C137.255 195.227 135.045 197.109 133.025 199.184C131.629 200.521 130.209 201.851 130.163 203.892C130.054 208.988 132.14 214.872 133.742 219.633C134.778 222.728 135.999 225.758 137.397 228.707Z" fill="url(#paint14_linear_3400_13944)"/>
<path d="M134.75 130.843C133.613 134.55 132.909 138.477 130.803 141.732C129.182 144.232 126.838 146.157 124.616 148.14C120.429 151.875 116.562 155.954 113.054 160.334C112.002 161.626 110.942 163.027 109.496 163.906C108.097 164.66 106.558 165.119 104.974 165.256C101.086 165.793 97.1419 165.778 93.2581 165.21C92.089 165.042 90.836 164.771 90.0287 163.919C89.4288 163.118 89.0662 162.164 88.9824 161.167C87.5751 152.248 88.323 143.121 91.1636 134.55C94.0041 125.979 98.8548 118.213 105.31 111.899C106.556 110.59 108.037 109.527 109.676 108.767C111.275 108.208 112.95 107.899 114.643 107.849C122.284 107.249 130.332 106.713 137.249 109.987C138.657 110.633 142.055 112.054 142.739 113.546C143.572 115.355 141.68 116.911 140.711 118.339C138.113 122.187 136.103 126.401 134.75 130.843Z" fill="#233DFF"/>
<path d="M134.75 130.843C133.613 134.55 132.909 138.477 130.803 141.732C129.182 144.232 126.838 146.157 124.616 148.14C120.429 151.875 116.562 155.954 113.054 160.334C112.002 161.626 110.942 163.027 109.496 163.906C108.097 164.66 106.558 165.119 104.974 165.256C101.086 165.793 97.1419 165.778 93.2581 165.21C92.089 165.042 90.836 164.771 90.0287 163.919C89.4288 163.118 89.0662 162.164 88.9824 161.167C87.5751 152.248 88.323 143.121 91.1636 134.55C94.0041 125.979 98.8548 118.213 105.31 111.899C106.556 110.59 108.037 109.527 109.676 108.767C111.275 108.208 112.95 107.899 114.643 107.849C122.284 107.249 130.332 106.713 137.249 109.987C138.657 110.633 142.055 112.054 142.739 113.546C143.572 115.355 141.68 116.911 140.711 118.339C138.113 122.187 136.103 126.401 134.75 130.843Z" fill="url(#paint15_linear_3400_13944)"/>
<path d="M137.288 179.155C132.34 180.944 127.864 183.812 123.44 186.647C122.458 187.293 121.425 187.939 120.941 189.031C120.114 190.858 121.199 192.906 122.116 194.701C124.471 199.313 125.794 204.382 125.991 209.557C129.557 208.465 133.277 211.281 136.971 210.848C138.549 210.557 140.056 209.97 141.415 209.118L153.002 202.814C154.029 202.379 154.955 201.738 155.722 200.93C156.49 200.122 157.083 199.165 157.465 198.118C158.641 195.715 159.842 193.093 159.293 190.477C159.007 189.4 158.573 188.367 158.001 187.409C156.774 185.065 153.08 174.802 150.528 174.44C149.295 174.259 145.6 176.559 144.27 176.985C141.964 177.741 139.619 178.322 137.288 179.155Z" fill="#233DFF"/>
<path d="M136.455 179.51C131.507 181.306 127.038 184.167 122.607 187.009C121.625 187.655 120.592 188.301 120.108 189.386C119.281 191.214 120.372 193.261 121.283 195.057C123.641 199.667 124.964 204.737 125.158 209.912C128.73 208.82 132.444 211.643 136.138 211.204C137.716 210.913 139.224 210.326 140.582 209.473L152.156 203.175C153.181 202.739 154.105 202.097 154.872 201.29C155.638 200.482 156.231 199.526 156.613 198.48C157.788 196.077 158.99 193.455 158.447 190.839C158.159 189.762 157.724 188.73 157.155 187.771C155.928 185.433 152.227 175.163 149.676 174.802C148.443 174.627 144.748 176.92 143.418 177.346C141.131 178.096 138.754 178.677 136.455 179.51Z" fill="url(#paint16_linear_3400_13944)"/>
<path d="M126.179 220.795C127.324 224.092 128.148 227.493 128.639 230.948C128.807 232.44 128.814 234.087 127.922 235.295C127.031 236.503 125.429 236.981 123.931 236.981C122.434 236.888 120.945 236.691 119.474 236.393C116.174 235.961 112.744 236.503 109.56 235.534C108.493 235.188 107.457 234.756 106.46 234.243L97.9212 230.115C97.5388 229.952 97.182 229.735 96.862 229.469C96.4825 229.085 96.1877 228.625 95.9965 228.12C94.107 223.819 93.6189 219.033 94.6014 214.44C95.5379 210.093 97.7662 206.088 98.5348 201.709C98.974 199.184 98.9546 196.491 100.227 194.275C100.542 193.669 101.018 193.162 101.603 192.809C102.327 192.495 103.114 192.355 103.902 192.402C106.369 192.363 104.645 189.173 107.131 189.134C108.824 189.134 115.341 189.321 116.742 190.426C118.144 191.53 118.37 197.137 118.951 198.822C120.549 203.447 122.105 208.086 123.621 212.741C124.482 215.432 125.335 218.117 126.179 220.795Z" fill="#233DFF"/>
<path d="M126.179 220.795C127.324 224.092 128.148 227.493 128.639 230.948C128.807 232.44 128.814 234.087 127.922 235.295C127.031 236.503 125.429 236.981 123.931 236.981C122.434 236.888 120.945 236.691 119.474 236.393C116.174 235.961 112.744 236.503 109.56 235.534C108.493 235.188 107.457 234.756 106.46 234.243L97.9212 230.115C97.5388 229.952 97.182 229.735 96.862 229.469C96.4825 229.085 96.1877 228.625 95.9965 228.12C94.107 223.819 93.6189 219.033 94.6014 214.44C95.5379 210.093 97.7662 206.088 98.5348 201.709C98.974 199.184 98.9546 196.491 100.227 194.275C100.542 193.669 101.018 193.162 101.603 192.809C102.327 192.495 103.114 192.355 103.902 192.402C106.369 192.363 104.645 189.173 107.131 189.134C108.824 189.134 115.341 189.321 116.742 190.426C118.144 191.53 118.37 197.137 118.951 198.822C120.549 203.447 122.105 208.086 123.621 212.741C124.482 215.432 125.335 218.117 126.179 220.795Z" fill="url(#paint17_linear_3400_13944)"/>
<path d="M239.312 99.6726C237.916 100.7 236.683 102.043 235.029 102.579C235.779 105.124 239.001 106.209 240.009 108.657C240.694 110.323 240.203 112.203 239.925 113.979C239.228 118.448 239.957 123.021 240.687 127.458C240.868 128.563 241.165 129.835 242.179 130.313C242.552 130.461 242.948 130.542 243.348 130.552C245.518 130.707 247.811 130.552 249.678 129.467C252.203 127.962 253.618 124.856 256.376 123.848C257.222 123.538 258.236 123.389 258.727 122.634C258.896 122.283 258.991 121.901 259.005 121.512C259.02 121.123 258.953 120.735 258.811 120.373C257.803 116.498 255.84 113.01 253.863 109.561C252.791 107.557 251.523 105.664 250.078 103.91C248.451 102.152 246.629 100.585 244.646 99.2398C242.87 97.9481 241.068 98.3808 239.312 99.6726Z" fill="#233DFF"/>
<path d="M239.312 99.6726C237.916 100.7 236.683 102.043 235.029 102.579C235.779 105.124 239.001 106.209 240.009 108.657C240.694 110.323 240.203 112.203 239.925 113.979C239.228 118.448 239.957 123.021 240.687 127.458C240.868 128.563 241.165 129.835 242.179 130.313C242.552 130.461 242.948 130.542 243.348 130.552C245.518 130.707 247.811 130.552 249.678 129.467C252.203 127.962 253.618 124.856 256.376 123.848C257.222 123.538 258.236 123.389 258.727 122.634C258.896 122.283 258.991 121.901 259.005 121.512C259.02 121.123 258.953 120.735 258.811 120.373C257.803 116.498 255.84 113.01 253.863 109.561C252.791 107.557 251.523 105.664 250.078 103.91C248.451 102.152 246.629 100.585 244.646 99.2398C242.87 97.9481 241.068 98.3808 239.312 99.6726Z" fill="url(#paint18_linear_3400_13944)"/>
<path d="M108.43 195.334C108.32 198.525 108.966 201.683 109.431 204.842C110.355 211.062 110.478 217.882 106.964 223.094C106.921 223.206 106.854 223.306 106.767 223.388C106.68 223.469 106.576 223.53 106.462 223.565C106.349 223.601 106.228 223.61 106.11 223.592C105.993 223.574 105.88 223.53 105.782 223.463C100.395 221.323 95.097 218.944 89.8869 216.326C89.2997 216.098 88.7891 215.708 88.4143 215.202C88.1329 214.616 88.0254 213.961 88.1043 213.316L88.6468 195.115C88.6487 193.954 88.7547 192.795 88.9633 191.653C89.2908 190.125 89.9525 188.69 90.9009 187.448C91.419 186.686 92.1423 186.086 92.9871 185.717C93.7737 185.492 94.598 185.431 95.4092 185.536C100.912 185.859 106.389 186.266 111.905 186.673C112.531 186.685 113.151 186.801 113.739 187.015C115.257 187.661 115.897 189.431 116.375 191.007C115.851 189.295 112.325 189.547 111.091 189.922C109.07 190.542 108.495 193.507 108.43 195.334Z" fill="#233DFF"/>
<path d="M111.149 139.207C108.113 143.457 105.51 148.107 104.218 153.216C102.526 159.837 103.133 166.819 103.262 173.665C103.601 194.842 99.2772 215.834 90.5966 235.153C88.7752 239.17 86.6761 243.239 83.1625 245.894C81.7739 244.35 80.3529 242.813 78.9384 241.27C78.7025 241.043 78.506 240.779 78.3571 240.488C78.2474 240.316 78.1708 240.126 78.1311 239.926C78.1117 239.29 78.3279 238.669 78.7382 238.182C80.6306 235.353 83.2142 233.015 85.0291 230.147C87.0313 226.957 87.9679 223.217 88.8011 219.555C90.9002 210.377 92.3922 201.07 93.9035 191.782C94.614 187.384 95.3245 182.985 95.7249 178.535C96.584 169.157 96.1318 159.675 97.6626 150.394C98.9543 142.333 102.009 134.066 108.048 128.298C110.025 126.432 113.08 124.965 115.153 126.328C116.029 126.944 116.642 127.866 116.871 128.912C118.027 132.658 113.138 136.475 111.149 139.207Z" fill="#233DFF"/>
<path d="M109.857 137.663C106.802 141.913 104.192 146.564 102.907 151.647C101.241 158.293 101.822 165.275 101.945 172.121C102.303 193.3 97.9778 214.296 89.279 233.609C87.4835 237.627 85.3585 241.696 81.8707 244.35C80.6823 243.059 79.4939 241.767 78.3571 240.475C78.2474 240.304 78.1708 240.113 78.1311 239.913C78.1117 239.277 78.3279 238.656 78.7382 238.169C80.6306 235.34 83.2142 233.002 85.0291 230.134C87.0313 226.944 87.9679 223.204 88.8011 219.542C90.9002 210.364 92.3922 201.057 93.9035 191.769C94.614 187.371 95.3245 182.972 95.7249 178.522C96.584 169.144 96.1318 159.662 97.6626 150.381C98.9543 142.32 102.009 134.053 108.048 128.285C110.025 126.419 113.08 124.952 115.153 126.315C115.312 126.65 115.448 126.995 115.56 127.349C116.71 131.121 111.807 134.938 109.857 137.663Z" fill="url(#paint19_linear_3400_13944)"/>
<path d="M322.547 195.063C320.041 195.063 317.432 195.257 315.145 194.236C313.207 193.384 311.793 191.789 310.269 190.361C304.522 185.033 297.163 181.774 289.355 181.099C283.29 180.589 277.212 181.68 271.122 181.939C258.858 182.459 246.684 179.627 235.908 173.749C237.018 182.171 240.072 190.22 244.828 197.258C249.585 204.297 255.913 210.132 263.313 214.304C266.982 216.332 271.064 218.102 273.382 221.615C277.684 228.197 273.841 238.105 278.84 244.17C280.726 246.456 283.549 247.728 285.822 249.627C291.635 254.517 293.114 262.732 296.518 269.533C303.054 282.58 316.689 290.24 329.548 297.126C334.231 299.638 339.011 302.176 344.242 303.113C349.228 304.004 354.395 303.371 359.278 302.028C378.855 296.661 395.131 276.567 390.836 256.726C387.562 241.612 373.61 230.722 364.607 218.857C354.286 205.229 340.335 195.005 322.547 195.063Z" fill="#233DFF"/>
<path d="M322.547 195.063C320.041 195.063 317.432 195.257 315.145 194.236C313.207 193.384 311.793 191.789 310.269 190.361C304.522 185.033 297.163 181.774 289.355 181.099C283.29 180.589 277.212 181.68 271.122 181.939C258.858 182.459 246.684 179.627 235.908 173.749C237.018 182.171 240.072 190.22 244.828 197.258C249.585 204.297 255.913 210.132 263.313 214.304C266.982 216.332 271.064 218.102 273.382 221.615C277.684 228.197 273.841 238.105 278.84 244.17C280.726 246.456 283.549 247.728 285.822 249.627C291.635 254.517 293.114 262.732 296.518 269.533C303.054 282.58 316.689 290.24 329.548 297.126C334.231 299.638 339.011 302.176 344.242 303.113C349.228 304.004 354.395 303.371 359.278 302.028C378.855 296.661 395.131 276.567 390.836 256.726C387.562 241.612 373.61 230.722 364.607 218.857C354.286 205.229 340.335 195.005 322.547 195.063Z" fill="url(#paint20_linear_3400_13944)"/>
<path d="M62.9076 205.823C60.8337 213.787 60.208 222.059 61.0604 230.244C61.7902 237.252 63.6052 244.312 62.4167 251.261C61.4867 256.7 58.7675 261.647 56.1 266.478L44.3772 287.67C35.0959 273.984 20.3116 256.357 27.1128 239.371C30.2518 231.53 35.8645 224.27 42.0197 218.56C44.8358 215.957 62.4942 207.412 62.9076 205.823Z" fill="#233DFF"/>
<path d="M62.9076 205.823C60.8337 213.787 60.208 222.059 61.0604 230.244C61.7902 237.252 63.6052 244.312 62.4167 251.261C61.4867 256.7 58.7675 261.647 56.1 266.478L44.3772 287.67C35.0959 273.984 20.3116 256.357 27.1128 239.371C30.2518 231.53 35.8645 224.27 42.0197 218.56C44.8358 215.957 62.4942 207.412 62.9076 205.823Z" fill="url(#paint21_linear_3400_13944)"/>
<defs>
<linearGradient id="paint0_linear_3400_13944" x1="373.74" y1="163.932" x2="302.557" y2="411.176" gradientUnits="userSpaceOnUse">
<stop stop-color="#010101" stop-opacity="0"/>
<stop offset="0.95" stop-color="#010101"/>
</linearGradient>
<linearGradient id="paint1_linear_3400_13944" x1="129.518" y1="256.196" x2="187.202" y2="256.196" gradientUnits="userSpaceOnUse">
<stop stop-color="#010101" stop-opacity="0"/>
<stop offset="0.95" stop-color="#010101"/>
</linearGradient>
<linearGradient id="paint2_linear_3400_13944" x1="173.399" y1="246.398" x2="233.905" y2="240.701" gradientUnits="userSpaceOnUse">
<stop stop-color="#010101" stop-opacity="0"/>
<stop offset="0.95" stop-color="#010101"/>
</linearGradient>
<linearGradient id="paint3_linear_3400_13944" x1="182.707" y1="76.5695" x2="203.045" y2="76.5695" gradientUnits="userSpaceOnUse">
<stop stop-color="#E5C6D6"/>
<stop offset="0.42" stop-color="#EAD4D0"/>
<stop offset="1" stop-color="#F0E9CB"/>
</linearGradient>
<linearGradient id="paint4_linear_3400_13944" x1="256.802" y1="53.111" x2="192.737" y2="76.6018" gradientUnits="userSpaceOnUse">
<stop stop-color="#010101" stop-opacity="0"/>
<stop offset="0.95" stop-color="#010101"/>
</linearGradient>
<linearGradient id="paint5_linear_3400_13944" x1="209.781" y1="79.2562" x2="150.463" y2="72.3776" gradientUnits="userSpaceOnUse">
<stop stop-color="#010101" stop-opacity="0"/>
<stop offset="0.95" stop-color="#010101"/>
</linearGradient>
<linearGradient id="paint6_linear_3400_13944" x1="135.034" y1="59.1759" x2="193.247" y2="59.1759" gradientUnits="userSpaceOnUse">
<stop stop-color="white" stop-opacity="0"/>
<stop offset="0.95" stop-color="white"/>
</linearGradient>
<linearGradient id="paint7_linear_3400_13944" x1="215.42" y1="149.399" x2="-2.39714" y2="186.415" gradientUnits="userSpaceOnUse">
<stop stop-color="#010101" stop-opacity="0"/>
<stop offset="0.95" stop-color="#010101"/>
</linearGradient>
<linearGradient id="paint8_linear_3400_13944" x1="211.093" y1="97.8191" x2="214.297" y2="210.287" gradientUnits="userSpaceOnUse">
<stop stop-color="#010101" stop-opacity="0"/>
<stop offset="0.95" stop-color="#010101"/>
</linearGradient>
<linearGradient id="paint9_linear_3400_13944" x1="209.233" y1="83.2543" x2="261.44" y2="83.2543" gradientUnits="userSpaceOnUse">
<stop stop-color="#E5C6D6"/>
<stop offset="0.42" stop-color="#EAD4D0"/>
<stop offset="1" stop-color="#F0E9CB"/>
</linearGradient>
<linearGradient id="paint10_linear_3400_13944" x1="144.121" y1="57.9033" x2="179.367" y2="57.9033" gradientUnits="userSpaceOnUse">
<stop stop-color="#010101" stop-opacity="0"/>
<stop offset="0.95" stop-color="#010101"/>
</linearGradient>
<linearGradient id="paint11_linear_3400_13944" x1="135.608" y1="48.887" x2="162.852" y2="48.887" gradientUnits="userSpaceOnUse">
<stop stop-color="#010101" stop-opacity="0"/>
<stop offset="0.95" stop-color="#010101"/>
</linearGradient>
<linearGradient id="paint12_linear_3400_13944" x1="174.955" y1="158.041" x2="20.2534" y2="208.342" gradientUnits="userSpaceOnUse">
<stop stop-color="#010101" stop-opacity="0"/>
<stop offset="0.95" stop-color="#010101"/>
</linearGradient>
<linearGradient id="paint13_linear_3400_13944" x1="69.0507" y1="218.722" x2="379.404" y2="71.6155" gradientUnits="userSpaceOnUse">
<stop stop-color="#010101" stop-opacity="0"/>
<stop offset="0.95" stop-color="#010101"/>
</linearGradient>
<linearGradient id="paint14_linear_3400_13944" x1="130.15" y1="210.39" x2="168.232" y2="210.39" gradientUnits="userSpaceOnUse">
<stop stop-color="#010101" stop-opacity="0"/>
<stop offset="0.95" stop-color="#010101"/>
</linearGradient>
<linearGradient id="paint15_linear_3400_13944" x1="132.282" y1="151.014" x2="64.3032" y2="97.6316" gradientUnits="userSpaceOnUse">
<stop stop-color="#010101" stop-opacity="0"/>
<stop offset="0.95" stop-color="#010101"/>
</linearGradient>
<linearGradient id="paint16_linear_3400_13944" x1="130.694" y1="181.751" x2="165.571" y2="233.474" gradientUnits="userSpaceOnUse">
<stop stop-color="#010101" stop-opacity="0"/>
<stop offset="0.95" stop-color="#010101"/>
</linearGradient>
<linearGradient id="paint17_linear_3400_13944" x1="116.548" y1="228.236" x2="88.4332" y2="175.564" gradientUnits="userSpaceOnUse">
<stop stop-color="#010101" stop-opacity="0"/>
<stop offset="0.95" stop-color="#010101"/>
</linearGradient>
<linearGradient id="paint18_linear_3400_13944" x1="235.029" y1="114.534" x2="259.004" y2="114.534" gradientUnits="userSpaceOnUse">
<stop stop-color="white" stop-opacity="0"/>
<stop offset="0.95" stop-color="white"/>
</linearGradient>
<linearGradient id="paint19_linear_3400_13944" x1="81.2636" y1="182.707" x2="153.092" y2="193.016" gradientUnits="userSpaceOnUse">
<stop stop-color="#010101" stop-opacity="0"/>
<stop offset="0.95" stop-color="#010101"/>
</linearGradient>
<linearGradient id="paint20_linear_3400_13944" x1="320.545" y1="208.058" x2="195.263" y2="468.588" gradientUnits="userSpaceOnUse">
<stop stop-color="#010101" stop-opacity="0"/>
<stop offset="0.95" stop-color="#010101"/>
</linearGradient>
<linearGradient id="paint21_linear_3400_13944" x1="59.0258" y1="218.089" x2="-53.9133" y2="443.973" gradientUnits="userSpaceOnUse">
<stop stop-color="#010101" stop-opacity="0"/>
<stop offset="0.95" stop-color="#010101"/>
</linearGradient>
</defs>
</svg>
