<svg width="20" height="21" viewBox="0 0 20 21" fill="none" xmlns="http://www.w3.org/2000/svg">
<path d="M17.5 17.1667C17.5 17.6269 17.1269 18 16.6667 18H3.33333C2.8731 18 2.5 17.6269 2.5 17.1667V8.26158C2.5 8.00643 2.61689 7.76533 2.81721 7.60731L9.48392 2.34826C9.7865 2.1095 10.2135 2.1095 10.5161 2.34826L17.1828 7.60731C17.3831 7.76533 17.5 8.00643 17.5 8.26158V17.1667ZM5.83333 10.5C5.83333 12.8012 7.69882 14.6667 10 14.6667C12.3012 14.6667 14.1667 12.8012 14.1667 10.5H12.5C12.5 11.8807 11.3807 13 10 13C8.61925 13 7.5 11.8807 7.5 10.5H5.83333Z" fill="#828282"/>
</svg>
