<svg width="20" height="21" viewBox="0 0 20 21" fill="none" xmlns="http://www.w3.org/2000/svg">
<path d="M10.0026 10.4999C9.08594 10.4999 8.30122 10.1735 7.64844 9.52075C6.99566 8.86797 6.66927 8.08325 6.66927 7.16659C6.66927 6.24992 6.99566 5.4652 7.64844 4.81242C8.30122 4.15964 9.08594 3.83325 10.0026 3.83325C10.9193 3.83325 11.704 4.15964 12.3568 4.81242C13.0095 5.4652 13.3359 6.24992 13.3359 7.16659C13.3359 8.08325 13.0095 8.86797 12.3568 9.52075C11.704 10.1735 10.9193 10.4999 10.0026 10.4999ZM3.33594 17.1666V14.8333C3.33594 14.361 3.4576 13.9269 3.70094 13.5308C3.94427 13.1346 4.26705 12.8327 4.66927 12.6249C5.53038 12.1944 6.40538 11.8713 7.29427 11.6558C8.18316 11.4402 9.08594 11.3327 10.0026 11.3333C10.9193 11.3333 11.822 11.441 12.7109 11.6566C13.5998 11.8721 14.4748 12.1949 15.3359 12.6249C15.7387 12.8333 16.0618 13.1355 16.3051 13.5316C16.5484 13.9277 16.6698 14.3616 16.6693 14.8333V17.1666H3.33594Z" fill="#929090"/>
</svg>
