<svg width="20" height="21" viewBox="0 0 20 21" fill="none" xmlns="http://www.w3.org/2000/svg">
<path d="M17.5039 5.45041C16.0546 7.09247 14.0744 8.2549 11.832 8.66915C11.4781 8.02356 10.7921 7.58586 10.0039 7.58586C9.21576 7.58586 8.52976 8.02356 8.17584 8.66915C5.93338 8.2549 3.95321 7.09247 2.50391 5.45041V3.00252C2.50391 2.54228 2.87701 2.16919 3.33724 2.16919H16.6706C17.1308 2.16919 17.5039 2.54228 17.5039 3.00252V5.45041ZM17.5039 7.77272V18.0025C17.5039 18.4627 17.1308 18.8358 16.6706 18.8358H3.33724C2.87701 18.8358 2.50391 18.4627 2.50391 18.0025V7.77272C4.05401 9.075 5.94781 9.98133 8.02963 10.3362C8.30773 11.1597 9.08659 11.7525 10.0039 11.7525C10.9213 11.7525 11.7001 11.1597 11.9782 10.3362C14.06 9.98133 15.9538 9.075 17.5039 7.77272Z" fill="#828282"/>
</svg>
